<svg width="17" height="18" viewBox="0 0 17 18" fill="none" xmlns="http://www.w3.org/2000/svg">
<path fill-rule="evenodd" clip-rule="evenodd" d="M8.125 15.5C11.7149 15.5 14.625 12.5899 14.625 9C14.625 5.41015 11.7149 2.5 8.125 2.5C4.53515 2.5 1.625 5.41015 1.625 9C1.625 12.5899 4.53515 15.5 8.125 15.5ZM8.125 17.125C12.6123 17.125 16.25 13.4873 16.25 9C16.25 4.51269 12.6123 0.875 8.125 0.875C3.63769 0.875 0 4.51269 0 9C0 13.4873 3.63769 17.125 8.125 17.125Z" fill="#1438B5"/>
<path fill-rule="evenodd" clip-rule="evenodd" d="M7.64905 9L10.3245 6.32452L9.17548 5.17548L5.35095 9L9.17548 12.8245L10.3245 11.6755L7.64905 9Z" fill="#1438B5"/>
</svg>
