<svg width="17" height="18" viewBox="0 0 17 18" fill="none" xmlns="http://www.w3.org/2000/svg">
<path fill-rule="evenodd" clip-rule="evenodd" d="M8.375 15.5C11.9649 15.5 14.875 12.5899 14.875 9C14.875 5.41015 11.9649 2.5 8.375 2.5C4.78515 2.5 1.875 5.41015 1.875 9C1.875 12.5899 4.78515 15.5 8.375 15.5ZM8.375 17.125C12.8623 17.125 16.5 13.4873 16.5 9C16.5 4.51269 12.8623 0.875 8.375 0.875C3.88769 0.875 0.25 4.51269 0.25 9C0.25 13.4873 3.88769 17.125 8.375 17.125Z" fill="#1438B5"/>
<path fill-rule="evenodd" clip-rule="evenodd" d="M8.85095 9L6.17548 6.32452L7.32452 5.17548L11.149 9L7.32452 12.8245L6.17548 11.6755L8.85095 9Z" fill="#1438B5"/>
</svg>
